<?xml version="1.0" standalone="no"?><!DOCTYPE svg PUBLIC "-//W3C//DTD SVG 1.1//EN" "http://www.w3.org/Graphics/SVG/1.1/DTD/svg11.dtd">

<svg t="1498703612600" class="icon" style="" viewBox="0 0 1024 1024" version="1.1" xmlns="http://www.w3.org/2000/svg" p-id="2629" xmlns:xlink="http://www.w3.org/1999/xlink" width="32" height="32">
    <defs><style type="text/css"></style></defs>
    <path d="M928 440 736 440c-35.344 0-64 28.88-64 64.192L672 640.08l192 111.936L864 1016l65 0.248c35.344 0 63-29.136 63-64.448L992 504.192C992 468.88 963.344 440 928 440z" p-id="2630" fill="#1296db"></path>
    <path d="M642.496 249.248c9.672 33.424 46.904 59.944 94.704 68.08C743.552 355.152 776.376 384 816 384c44.176 0 80-35.816 80-80 0-13.88-3.536-26.928-9.76-38.304C892.504 255.312 896 243.944 896 232c0-17.344-7.408-33.48-20.008-47.104C888.776 167.752 896 148.44 896 128c0-70.688-85.96-128-192-128S512 57.312 512 128C512 184.344 566.632 232.152 642.496 249.248z" p-id="2631" fill="#1296db"></path>
    <path d="M544 750.216 288 608l0 142.216L32 608l0 352c0 35.344 28.656 64 64 64l192 0 32 0 224 0 32 0 192 0c35.344 0 64-27.656 64-63L832 768 544 608 544 750.216zM224 912c0 8.832-7.168 16-16 16l-64 0c-8.832 0-16-7.168-16-16l0-64c0-8.832 7.168-16 16-16l64 0c8.832 0 16 7.168 16 16L224 912zM480 912c0 8.832-7.168 16-16 16l-64 0c-8.832 0-16-7.168-16-16l0-64c0-8.832 7.168-16 16-16l64 0c8.832 0 16 7.168 16 16L480 912zM640 848c0-8.832 7.168-16 16-16l64 0c8.832 0 16 7.168 16 16l0 64c0 8.832-7.168 16-16 16l-64 0c-8.832 0-16-7.168-16-16L640 848z" p-id="2632" fill="#1296db"></path>
</svg>